# File created by Blade
# Date/Time:  Tue Apr 07 20:53:11 2015
# Frame Rate: 120.000 fps
#------------------------------------------------------
:FULLY-SPECIFIED
:DEGREES
854
root 30.911865 33.352026 3.162991 -10.234628 -66.079525 -320.662881
Spine -16.922776 -19.587675 -2.608118
Head 17.224433 -7.971936 -3.062354
LeftShoulder -15.419973 31.184742 30.864348
LeftArm 82.829428 -61.466836 -74.663220
LeftForeArm 0.864289 0.000000 20.013758
LeftHand 12.824937 -0.000000 15.554690
LeftHandThumb1 -26.253704 0.000000 33.147579
RightShoulder -8.405426 14.104186 -42.681451
RightArm 24.740226 14.685594 34.308504
RightForeArm -16.253329 -0.000000 16.066317
RightHand 12.421650 -0.000000 -13.074412
RightHandThumb1 -24.326973 -0.000000 -32.862282
LeftUpLeg -4.940029 -3.295923 -3.701396
LeftLeg 5.824321 -0.000000 -0.000000
LeftFoot 5.526685 7.593326 -28.682995
LeftToeBase -9.829130 -0.000000 0.000000
RightUpLeg -33.791309 -20.863233 1.983771
RightLeg -0.249798 -0.000000 0.000000
RightFoot -2.540859 -21.257027 6.928406
RightToeBase 0.150252 -0.000000 -0.000000
855
root 30.991144 33.314507 3.158752 -10.062594 -66.721913 -321.400359
Spine -16.891591 -19.188674 -2.423475
Head 17.385837 -7.787333 -2.964171
LeftShoulder -15.486106 31.113564 31.011799
LeftArm 83.262926 -61.506142 -74.688425
LeftForeArm 1.092890 -0.000000 20.134809
LeftHand 13.031590 -0.000000 15.602586
LeftHandThumb1 -26.253704 0.000000 33.147579
RightShoulder -8.467462 14.218929 -42.857925
RightArm 25.188074 14.798737 34.393802
RightForeArm -16.826883 -0.000000 15.836086
RightHand 12.416850 -0.000000 -13.188933
RightHandThumb1 -24.326973 -0.000000 -32.862282
LeftUpLeg -5.191767 -3.912260 -3.864192
LeftLeg 6.263212 -0.000000 -0.000000
LeftFoot 5.011756 6.547251 -28.296971
LeftToeBase -12.311600 -0.000000 0.000000
RightUpLeg -33.361239 -20.573055 2.345963
RightLeg -0.457532 -0.000000 0.000000
RightFoot -2.380368 -20.762947 7.255726
RightToeBase 0.099722 -0.000000 -0.000000
856
root 31.072664 33.277991 3.154070 -9.939380 -67.359609 -322.054109
Spine -16.892087 -18.775533 -2.277462
Head 17.577559 -7.627319 -2.856287
LeftShoulder -15.542201 31.048230 31.135121
LeftArm 83.653855 -61.562316 -74.546226
LeftForeArm 1.220124 -0.000000 20.102783
LeftHand 13.225630 -0.000000 15.611385
LeftHandThumb1 -26.253704 0.000000 33.147579
RightShoulder -8.544272 14.472836 -43.032206
RightArm 25.509175 14.666951 34.346890
RightForeArm -17.317334 -0.000000 15.688748
RightHand 12.468528 0.000000 -13.245692
RightHandThumb1 -24.326973 -0.000000 -32.862282
LeftUpLeg -5.413285 -4.482051 -4.021866
LeftLeg 6.669137 -0.000000 -0.000000
LeftFoot 4.264400 5.464087 -28.684212
LeftToeBase -13.576716 -0.000000 0.000000
RightUpLeg -32.961478 -20.251848 2.661172
RightLeg -0.643554 -0.000000 0.000000
RightFoot -2.269921 -20.312633 7.633179
RightToeBase 0.258220 -0.000000 -0.000000
857
root 31.150963 33.240989 3.154028 -9.870084 -68.035357 -322.671198
Spine -16.891847 -18.377512 -2.113953
Head 17.777741 -7.411275 -2.764147
LeftShoulder -15.575622 30.934380 31.289752
LeftArm 83.757590 -61.625549 -74.213208
LeftForeArm 1.396737 -0.000000 20.114998
LeftHand 13.322069 -0.000000 15.703613
LeftHandThumb1 -26.253704 0.000000 33.147579
RightShoulder -8.571422 14.704086 -43.218689
RightArm 25.860217 14.576271 34.336710
RightForeArm -17.651209 -0.000000 15.545816
RightHand 12.468642 -0.000000 -13.424108
RightHandThumb1 -24.326973 -0.000000 -32.862282
LeftUpLeg -5.505629 -5.028982 -4.165312
LeftLeg 6.990932 -0.000000 -0.000000
LeftFoot 3.286622 4.516940 -29.349288
LeftToeBase -14.745646 -0.000000 0.000000
RightUpLeg -32.533294 -19.913868 2.960757
RightLeg -0.841012 -0.000000 0.000000
RightFoot -2.171962 -19.868791 8.043067
RightToeBase 0.377644 -0.000000 -0.000000
858
root 31.237210 33.207144 3.155543 -9.680987 -68.688206 -323.308094
Spine -16.994258 -17.969574 -1.903605
Head 17.968096 -7.218309 -2.706351
LeftShoulder -15.607959 30.876679 31.426676
LeftArm 83.845936 -61.684677 -73.858946
LeftForeArm 1.543206 -0.000000 20.165615
LeftHand 13.338530 -0.000000 15.770309
LeftHandThumb1 -26.253704 0.000000 33.147579
RightShoulder -8.631036 14.901069 -43.420272
RightArm 26.201365 14.523874 34.310082
RightForeArm -17.946639 -0.000000 15.485975
RightHand 12.340969 -0.000000 -13.614326
RightHandThumb1 -24.326973 -0.000000 -32.862282
LeftUpLeg -5.663791 -5.492007 -4.305391
LeftLeg 7.300584 -0.000000 -0.000000
LeftFoot 2.307348 3.639800 -29.579917
LeftToeBase -15.878252 -0.000000 0.000000
RightUpLeg -32.237937 -19.627683 3.310463
RightLeg -1.030019 -0.000000 0.000000
RightFoot -2.050455 -19.408494 8.620432
RightToeBase 0.145581 -0.000000 -0.000000
